<svg xmlns="http://www.w3.org/2000/svg" xmlns:xlink="http://www.w3.org/1999/xlink" viewBox="0 0 336 43.5"><defs><style>.cls-1{fill:none;}.cls-2{clip-path:url(#clip-path);}.cls-3{fill:#f44;}.cls-4{fill:#f80;}</style><clipPath id="clip-path" transform="translate(25.5 -0.32)"><path class="cls-1" d="M0,.73H13.27v15h14.5V.73H41.1v43H27.77V26.31H13.27V43.68H0Zm50.45,0h13.3v43H50.45ZM71,29.47l12.62-.79a9.73,9.73,0,0,0,1.67,4.69A7,7,0,0,0,91.11,36a6.46,6.46,0,0,0,4.38-1.34,3.83,3.83,0,0,0,.08-6.08q-1.47-1.3-6.8-2.49-8.73-2-12.45-5.21a10.49,10.49,0,0,1-3.75-8.29,11.28,11.28,0,0,1,1.92-6.26,12.78,12.78,0,0,1,5.77-4.63Q84.12,0,90.82,0q8.24,0,12.55,3.06t5.15,9.74L96,13.54a6.73,6.73,0,0,0-2.1-4.22A6.71,6.71,0,0,0,89.5,8,5.33,5.33,0,0,0,86,9a3,3,0,0,0-1.18,2.39,2.39,2.39,0,0,0,1,1.84q.94.85,4.45,1.58,8.7,1.88,12.47,3.8a13.13,13.13,0,0,1,5.48,4.76,12.07,12.07,0,0,1,1.71,6.36,13.62,13.62,0,0,1-2.28,7.61,14.33,14.33,0,0,1-6.39,5.29,25.8,25.8,0,0,1-10.34,1.8q-11,0-15.18-4.21A16.67,16.67,0,0,1,71,29.47ZM113.58.73h40.35V11.34H140.39V43.68H127.12V11.34H113.58Zm44.68,21.51q0-10.53,5.86-16.38T180.44,0Q191.17,0,197,5.76t5.8,16.12q0,7.53-2.53,12.35a18,18,0,0,1-7.32,7.5A24.18,24.18,0,0,1,181,44.41a27.5,27.5,0,0,1-12-2.31,18.09,18.09,0,0,1-7.72-7.32A24.35,24.35,0,0,1,158.26,22.24Zm13.27.05q0,6.51,2.42,9.35a9.16,9.16,0,0,0,13.2.06q2.34-2.79,2.34-10c0-4-.81-7-2.44-8.86a8.36,8.36,0,0,0-6.64-2.8A8.09,8.09,0,0,0,174,12.89Q171.53,15.74,171.53,22.29Zm38.56,21.39V.73h22.12a31.85,31.85,0,0,1,9.4,1.06,10,10,0,0,1,5.25,3.91,11.9,11.9,0,0,1,2,7,11.9,11.9,0,0,1-1.53,6.16A11.9,11.9,0,0,1,243.13,23a16.18,16.18,0,0,1-4.66,1.7,13.08,13.08,0,0,1,3.46,1.58,13.54,13.54,0,0,1,2.12,2.26,17.56,17.56,0,0,1,1.86,2.67l6.42,12.44h-15l-7.1-13.12a9.83,9.83,0,0,0-2.4-3.31,5.53,5.53,0,0,0-3.25-1h-1.17V43.68Zm13.33-25.55H229a19.84,19.84,0,0,0,3.52-.58,3.51,3.51,0,0,0,2.15-1.35,3.94,3.94,0,0,0,.84-2.49,3.93,3.93,0,0,0-1.32-3.19c-.88-.74-2.53-1.12-4.95-1.12h-5.83ZM252.25.73H267l8.65,14.49L284.31.73H299l-16.69,25v18H269v-18Z"/></clipPath></defs><g id="レイヤー_2" data-name="レイヤー 2"><g id="レイヤー_1-2" data-name="レイヤー 1"><g class="cls-2"><rect class="cls-3" y="21.5" width="332" height="22"/><rect class="cls-4" width="336" height="22"/></g></g></g></svg>