<svg xmlns="http://www.w3.org/2000/svg" xmlns:xlink="http://www.w3.org/1999/xlink" viewBox="0 0 296 44"><defs><style>.cls-1{fill:none;}.cls-2{clip-path:url(#clip-path);}.cls-3{fill:#f44;}.cls-4{fill:#f80;}</style><clipPath id="clip-path" transform="translate(17.38 -0.32)"><path class="cls-1" d="M0,.73H22.06c4.81,0,8.4,1.15,10.8,3.43s3.59,5.54,3.59,9.76-1.31,7.72-3.92,10.16S26,27.74,20.6,27.74H13.33V43.68H0ZM13.33,19h3.25q3.84,0,5.39-1.33a4.29,4.29,0,0,0,1.56-3.41,4.77,4.77,0,0,0-1.35-3.43q-1.35-1.41-5.07-1.41H13.33ZM43.36.73H78.93V9.9H56.66v6.83H77.31v8.76H56.66V34H79.57v9.72H43.36Zm43.53,43V.73H109a31.88,31.88,0,0,1,9.41,1.06,10,10,0,0,1,5.24,3.91,11.83,11.83,0,0,1,2,7,11.9,11.9,0,0,1-1.52,6.16A12,12,0,0,1,119.94,23a16.3,16.3,0,0,1-4.66,1.7,12.83,12.83,0,0,1,3.45,1.58,12.74,12.74,0,0,1,2.12,2.26,16.19,16.19,0,0,1,1.86,2.67l6.43,12.44h-15l-7.09-13.12a10,10,0,0,0-2.4-3.31,5.53,5.53,0,0,0-3.25-1h-1.18V43.68Zm13.33-25.55h5.6a19.84,19.84,0,0,0,3.52-.58,3.57,3.57,0,0,0,2.15-1.35,3.93,3.93,0,0,0,.83-2.49A4,4,0,0,0,111,10.52c-.88-.74-2.53-1.12-5-1.12h-5.83Zm30.85,11.34,12.63-.79a9.63,9.63,0,0,0,1.67,4.69A7,7,0,0,0,151.23,36a6.5,6.5,0,0,0,4.38-1.34,3.82,3.82,0,0,0,.07-6.08c-1-.87-3.24-1.7-6.79-2.49q-8.73-2-12.45-5.21a10.49,10.49,0,0,1-3.75-8.29,11.35,11.35,0,0,1,1.91-6.26,12.81,12.81,0,0,1,5.78-4.63Q144.22,0,150.94,0q8.24,0,12.55,3.06t5.14,9.74l-12.51.74A6.72,6.72,0,0,0,154,9.32,6.74,6.74,0,0,0,149.62,8a5.36,5.36,0,0,0-3.49,1A3,3,0,0,0,145,11.37a2.36,2.36,0,0,0,1,1.84c.62.57,2.11,1.1,4.45,1.58q8.7,1.88,12.47,3.8a13.19,13.19,0,0,1,5.48,4.76A12.07,12.07,0,0,1,170,29.71a13.55,13.55,0,0,1-2.29,7.61,14.25,14.25,0,0,1-6.38,5.29A25.84,25.84,0,0,1,151,44.41q-11,0-15.18-4.21A16.73,16.73,0,0,1,131.07,29.47Zm44-7.23q0-10.53,5.86-16.38T197.23,0Q208,0,213.75,5.76t5.8,16.12q0,7.53-2.53,12.35a18,18,0,0,1-7.33,7.5,24.13,24.13,0,0,1-11.94,2.68,27.49,27.49,0,0,1-12-2.31A18,18,0,0,1,178,34.78,24.35,24.35,0,0,1,175.05,22.24Zm13.27.05q0,6.51,2.42,9.35a9.16,9.16,0,0,0,13.2.06q2.34-2.79,2.34-10c0-4-.82-7-2.45-8.86a8.34,8.34,0,0,0-6.63-2.8,8.08,8.08,0,0,0-6.45,2.84Q188.32,15.74,188.32,22.29ZM226.79.73h12.39l16.17,23.76V.73h12.51v43H255.35L239.27,20.1V43.68H226.79Z"/></clipPath></defs><g id="レイヤー_2" data-name="レイヤー 2"><g id="レイヤー_1-2" data-name="レイヤー 1"><g class="cls-2"><rect class="cls-3" y="22" width="296" height="22"/><rect class="cls-4" width="296" height="22"/></g></g></g></svg>