<svg xmlns="http://www.w3.org/2000/svg" xmlns:xlink="http://www.w3.org/1999/xlink" viewBox="0 0 296 44"><defs><style>.cls-1{fill:none;}.cls-2{clip-path:url(#clip-path);}.cls-3{fill:#f44;}.cls-4{fill:#f80;}</style><clipPath id="clip-path" transform="translate(19.13 -0.32)"><path class="cls-1" d="M0,29.47l12.63-.79a9.63,9.63,0,0,0,1.67,4.69A7,7,0,0,0,20.16,36a6.5,6.5,0,0,0,4.38-1.34,4,4,0,0,0,1.53-3.09,3.94,3.94,0,0,0-1.46-3c-1-.87-3.24-1.7-6.8-2.49q-8.73-2-12.45-5.21a10.49,10.49,0,0,1-3.75-8.29A11.28,11.28,0,0,1,3.53,6.31,12.78,12.78,0,0,1,9.3,1.68Q13.15,0,19.86,0,28.1,0,32.42,3.06t5.14,9.74l-12.51.74A6.68,6.68,0,0,0,23,9.32,6.71,6.71,0,0,0,18.54,8a5.33,5.33,0,0,0-3.48,1,3,3,0,0,0-1.17,2.39,2.38,2.38,0,0,0,1,1.84c.63.57,2.11,1.1,4.46,1.58q8.7,1.88,12.46,3.8a13.13,13.13,0,0,1,5.48,4.76A12.07,12.07,0,0,1,39,29.71a13.62,13.62,0,0,1-2.28,7.61,14.22,14.22,0,0,1-6.39,5.29A25.8,25.8,0,0,1,20,44.41Q9,44.41,4.78,40.2A16.63,16.63,0,0,1,0,29.47ZM45.7.73H59V17L72.88.73H90.53L74.85,16.94,91.23,43.68H74.89L65.83,26,59,33.2V43.68H45.7Zm50.45,0h13.3v43H96.15ZM119,.73h13.28V33.11H153V43.68H119Zm40,0h13.28V33.11H193V43.68H159ZM196.7,29.47l12.63-.79A9.63,9.63,0,0,0,211,33.37,7,7,0,0,0,216.86,36a6.5,6.5,0,0,0,4.38-1.34,4,4,0,0,0,1.53-3.09,3.94,3.94,0,0,0-1.46-3c-1-.87-3.24-1.7-6.8-2.49q-8.73-2-12.45-5.21a10.49,10.49,0,0,1-3.75-8.29,11.28,11.28,0,0,1,1.92-6.26A12.78,12.78,0,0,1,206,1.68Q209.86,0,216.56,0q8.24,0,12.56,3.06t5.14,9.74l-12.51.74a6.68,6.68,0,0,0-2.1-4.22A6.71,6.71,0,0,0,215.24,8a5.33,5.33,0,0,0-3.48,1,3,3,0,0,0-1.17,2.39,2.38,2.38,0,0,0,1,1.84c.63.57,2.11,1.1,4.46,1.58q8.7,1.88,12.46,3.8A13.13,13.13,0,0,1,234,23.35a12.07,12.07,0,0,1,1.71,6.36,13.62,13.62,0,0,1-2.28,7.61A14.22,14.22,0,0,1,227,42.61a25.8,25.8,0,0,1-10.34,1.8q-11,0-15.18-4.21A16.67,16.67,0,0,1,196.7,29.47Z"/></clipPath></defs><g id="レイヤー_2" data-name="レイヤー 2"><g id="レイヤー_1-2" data-name="レイヤー 1"><g class="cls-2"><rect class="cls-3" y="22" width="296" height="22"/><rect class="cls-4" width="296" height="22"/></g></g></g></svg>